#tb 0: 1/15360
#tb 1: 1/44100
0,          0,          0,      512,   153600, 0xdc5d4195
1,          0,          0,     1024,     4096, 0xccf4d566
1,       1024,       1024,      446,     1784, 0xd21d8c7f
0,        512,        512,      512,   153600, 0x7a2355e2
1,       1470,       1470,     1024,     4096, 0x9e56a836
1,       2494,       2494,      446,     1784, 0x7bc9cecd
0,       1024,       1024,      512,   153600, 0x08dbbc2d
1,       2940,       2940,     1024,     4096, 0xfd6f2a3c
1,       3964,       3964,      446,     1784, 0x8aabbfd1
0,       1536,       1536,      512,   153600, 0xafd9b8b5
1,       4410,       4410,     1024,     4096, 0x951f2ec0
1,       5434,       5434,      446,     1784, 0xdf54749b
0,       2048,       2048,      512,   153600, 0xd219d980
1,       5880,       5880,     1024,     4096, 0x1f287b25
1,       6904,       6904,      446,     1784, 0xc70a3c19
0,       2560,       2560,      512,   153600, 0xca73ba2f
1,       7350,       7350,     1024,     4096, 0x7b07e8fb
1,       8374,       8374,      446,     1784, 0x7afba2b1
0,       3072,       3072,      512,   153600, 0x36cf5320
1,       8820,       8820,     1024,     4096, 0x881cf0cd
1,       9844,       9844,      446,     1784, 0x6beeaa59
0,       3584,       3584,      512,   153600, 0x579363a4
1,      10290,      10290,     1024,     4096, 0xf366987e
1,      11314,      11314,      446,     1784, 0xfc599de1
0,       4096,       4096,      512,   153600, 0xf20f90b3
1,      11760,      11760,     1024,     4096, 0x6d6d358e
1,      12784,      12784,      446,     1784, 0x10e4921f
0,       4608,       4608,      512,   153600, 0xc52e4860
1,      13230,      13230,     1024,     4096, 0x85174928
1,      14254,      14254,      446,     1784, 0x7aebba6b
0,       5120,       5120,      512,   153600, 0x108e0476
1,      14700,      14700,     1024,     4096, 0x7a7eae56
1,      15724,      15724,      446,     1784, 0x6c79d039
0,       5632,       5632,      512,   153600, 0x9aba18c3
1,      16170,      16170,     1024,     4096, 0xbee85b22
1,      17194,      17194,      446,     1784, 0x017d8a03
0,       6144,       6144,      512,   153600, 0x952c7f0e
1,      17640,      17640,     1024,     4096, 0x25d3c9c0
1,      18664,      18664,      446,     1784, 0xb7999127
0,       6656,       6656,      512,   153600, 0x1a487b96
1,      19110,      19110,     1024,     4096, 0x410651a8
1,      20134,      20134,      446,     1784, 0x9e35d333
0,       7168,       7168,      512,   153600, 0x09509c61
1,      20580,      20580,     1024,     4096, 0x67c863d8
1,      21604,      21604,      446,     1784, 0xf1c8c6e5
0,       7680,       7680,      512,   153600, 0xd6537d10
1,      22050,      22050,     1024,     4096, 0xd7aa148a
1,      23074,      23074,      446,     1784, 0xa35dfc88
0,       8192,       8192,      512,   153600, 0x07f51601
1,      23520,      23520,     1024,     4096, 0x888cf567
1,      24544,      24544,      446,     1784, 0xe00164d5
0,       8704,       8704,      512,   153600, 0x077d2685
1,      24990,      24990,     1024,     4096, 0xb5621cf6
1,      26014,      26014,      446,     1784, 0x82376bdf
0,       9216,       9216,      512,   153600, 0x5d945394
1,      26460,      26460,     1024,     4096, 0xdb8636ac
1,      27484,      27484,      446,     1784, 0xc9339047
0,       9728,       9728,      512,   153600, 0x46810b41
1,      27930,      27930,     1024,     4096, 0x6d8e83a2
1,      28954,      28954,      446,     1784, 0xb3807b37
0,      10240,      10240,      512,   153600, 0x337d6ac1
1,      29400,      29400,     1024,     4096, 0x4e693818
1,      30424,      30424,      446,     1784, 0xc4ce465b
0,      10752,      10752,      512,   153600, 0xbda97f0e
1,      30870,      30870,     1024,     4096, 0x58d485a3
1,      31894,      31894,      446,     1784, 0xe06450e9
0,      11264,      11264,      512,   153600, 0xb81be559
1,      32340,      32340,     1024,     4096, 0xdac6b5ee
1,      33364,      33364,      446,     1784, 0xe6681385
0,      11776,      11776,      512,   153600, 0x3d37e1e1
1,      33810,      33810,     1024,     4096, 0xf9634a29
1,      34834,      34834,      446,     1784, 0x34616431
0,      12288,      12288,      512,   153600, 0x2c3f02bb
1,      35280,      35280,     1024,     4096, 0xabc3c2e3
1,      36304,      36304,      446,     1784, 0xb9aa8643
0,      12800,      12800,      512,   153600, 0xf942e35b
1,      36750,      36750,     1024,     4096, 0x4e29f2dc
1,      37774,      37774,      446,     1784, 0x36185185
0,      13312,      13312,      512,   153600, 0x2ae47c4c
1,      38220,      38220,     1024,     4096, 0x255160c4
1,      39244,      39244,      446,     1784, 0x6f2b926d
0,      13824,      13824,      512,   153600, 0x2a6c8cd0
1,      39690,      39690,     1024,     4096, 0xb4a4f0f1
1,      40714,      40714,      446,     1784, 0xd8d94db9
0,      14336,      14336,      512,   153600, 0x8083b9df
1,      41160,      41160,     1024,     4096, 0xba197522
1,      42184,      42184,      446,     1784, 0xbdf8af3f
0,      14848,      14848,      512,   153600, 0x6970718c
1,      42630,      42630,     1024,     4096, 0xee9c664a
1,      43654,      43654,      446,     1784, 0x20a9fe75
0,      15360,      15360,      512,   153600, 0x3b09aacf
1,      44100,      44100,     1024,     4096, 0xda4f9b2c
1,      45124,      45124,      446,     1784, 0xaa8d404b
0,      15872,      15872,      512,   153600, 0x08c5fb80
1,      45570,      45570,     1024,     4096, 0x2e83bff6
1,      46594,      46594,      446,     1784, 0xbf64a261
0,      16384,      16384,      512,   153600, 0xb7373f42
1,      47040,      47040,     1024,     4096, 0x3b5519cc
1,      48064,      48064,      446,     1784, 0xd1f0f7ef
0,      16896,      16896,      512,   153600, 0xf5db322b
1,      48510,      48510,     1024,     4096, 0x605149da
1,      49534,      49534,      446,     1784, 0x7bf8a87f
0,      17408,      17408,      512,   153600, 0x05523a49
1,      49980,      49980,     1024,     4096, 0x25c30c8e
1,      51004,      51004,      446,     1784, 0x7b7c40bb
0,      17920,      17920,      512,   153600, 0xf78410d8
1,      51450,      51450,     1024,     4096, 0xf55bcb45
1,      52474,      52474,      446,     1784, 0x37076759
0,      18432,      18432,      512,   153600, 0x460d6aba
1,      52920,      52920,     1024,     4096, 0xdbb690a5
1,      53944,      53944,      446,     1784, 0x0d900fff
0,      18944,      18944,      512,   153600, 0x7a75a56a
1,      54390,      54390,     1024,     4096, 0x64a0a453
1,      55414,      55414,      446,     1784, 0x075f9c9f
0,      19456,      19456,      512,   153600, 0x027b74c5
1,      55860,      55860,     1024,     4096, 0xfa58149c
1,      56884,      56884,      446,     1784, 0x950b64a9
0,      19968,      19968,      512,   153600, 0x85143cb1
1,      57330,      57330,     1024,     4096, 0x0458c500
1,      58354,      58354,      446,     1784, 0x2d3a9195
0,      20480,      20480,      512,   153600, 0x9b9b4056
1,      58800,      58800,     1024,     4096, 0xf390dd45
1,      59824,      59824,      446,     1784, 0xb55d08fd
0,      20992,      20992,      512,   153600, 0xfb136c7b
1,      60270,      60270,     1024,     4096, 0x28f7778f
1,      61294,      61294,      446,     1784, 0x5323aa9f
0,      21504,      21504,      512,   153600, 0x075d8a7c
1,      61740,      61740,     1024,     4096, 0xf0ff5239
1,      62764,      62764,      446,     1784, 0x5ac0c4b7
0,      22016,      22016,      512,   153600, 0x860a6728
1,      63210,      63210,     1024,     4096, 0x3602ad06
1,      64234,      64234,      446,     1784, 0x359ae9f9
0,      22528,      22528,      512,   153600, 0x4ab34773
1,      64680,      64680,     1024,     4096, 0x6f630aa1
1,      65704,      65704,      446,     1784, 0x4d91f8ea
0,      23040,      23040,      512,   153600, 0x12e3f21a
1,      66150,      66150,     1024,     4096, 0x9f9070c1
1,      67174,      67174,      446,     1784, 0xa3197c55
0,      23552,      23552,      512,   153600, 0x0c3135a7
1,      67620,      67620,     1024,     4096, 0xe5cf4480
1,      68644,      68644,      446,     1784, 0xcb2a58a3
0,      24064,      24064,      512,   153600, 0x726833a7
1,      69090,      69090,     1024,     4096, 0xb2f80b19
1,      70114,      70114,      446,     1784, 0x07fffe1e
0,      24576,      24576,      512,   153600, 0x2a24bf36
1,      70560,      70560,     1024,     4096, 0x637c992f
1,      71584,      71584,      446,     1784, 0xe561a685
0,      25088,      25088,      512,   153600, 0xa4ad3e54
1,      72030,      72030,     1024,     4096, 0x36575700
1,      73054,      73054,      446,     1784, 0xbcf7dce1
0,      25600,      25600,      512,   153600, 0x6fa7bbd2
1,      73500,      73500,     1024,     4096, 0x363fa6de
1,      74524,      74524,      446,     1784, 0x76056e13
0,      26112,      26112,      512,   153600, 0x2d10cc63
1,      74970,      74970,     1024,     4096, 0x645e59ff
1,      75994,      75994,      446,     1784, 0x66b06d03
0,      26624,      26624,      512,   153600, 0xcd5fa2dd
1,      76440,      76440,     1024,     4096, 0xa7a4aae3
1,      77464,      77464,      446,     1784, 0xc77790b7
0,      27136,      27136,      512,   153600, 0x1cbb4b32
1,      77910,      77910,     1024,     4096, 0x5cabc849
1,      78934,      78934,      446,     1784, 0xb94c3e9d
0,      27648,      27648,      512,   153600, 0x1059ef06
1,      79380,      79380,     1024,     4096, 0x71535506
1,      80404,      80404,      446,     1784, 0x9a880b77
0,      28160,      28160,      512,   153600, 0xd7417121
1,      80850,      80850,     1024,     4096, 0xbc363f70
1,      81874,      81874,      446,     1784, 0x982b615d
0,      28672,      28672,      512,   153600, 0x9e27747f
1,      82320,      82320,     1024,     4096, 0x977a2a64
1,      83344,      83344,      446,     1784, 0x4b614b33
0,      29184,      29184,      512,   153600, 0xdd134469
1,      83790,      83790,     1024,     4096, 0xbca32dca
1,      84814,      84814,      446,     1784, 0x5f7414fd
0,      29696,      29696,      512,   153600, 0xd865af83
1,      85260,      85260,     1024,     4096, 0x8f5b0cee
1,      86284,      86284,      446,     1784, 0xacf3748b
0,      30208,      30208,      512,   153600, 0x46d7f9a0
1,      86730,      86730,     1024,     4096, 0xfc2a72ab
1,      87754,      87754,      446,     1784, 0x8d417d25
0,      30720,      30720,      512,   153600, 0xcedcd435
1,      88200,      88200,     1024,     4096, 0x5557d2b5
1,      89224,      89224,      446,     1784, 0x43dacc25
0,      31232,      31232,      512,   153600, 0xd376b1e3
1,      89670,      89670,     1024,     4096, 0x1601fe57
1,      90694,      90694,      446,     1784, 0xf5df67c3
0,      31744,      31744,      512,   153600, 0x24a9766f
1,      91140,      91140,     1024,     4096, 0x8e9930a2
1,      92164,      92164,      446,     1784, 0xd606d307
0,      32256,      32256,      512,   153600, 0x81ded708
1,      92610,      92610,     1024,     4096, 0xff6e1784
1,      93634,      93634,      446,     1784, 0xce813667
0,      32768,      32768,      512,   153600, 0x778f55ef
1,      94080,      94080,     1024,     4096, 0x161fc47f
1,      95104,      95104,      446,     1784, 0x86f3addd
0,      33280,      33280,      512,   153600, 0x287eac31
1,      95550,      95550,     1024,     4096, 0xaeccd9b1
1,      96574,      96574,      446,     1784, 0x0a014049
0,      33792,      33792,      512,   153600, 0xd7e58140
1,      97020,      97020,     1024,     4096, 0xe8b794a2
1,      98044,      98044,      446,     1784, 0x7afc7359
0,      34304,      34304,      512,   153600, 0x3ad042f6
1,      98490,      98490,     1024,     4096, 0xf0940960
1,      99514,      99514,      446,     1784, 0x06006bbd
0,      34816,      34816,      512,   153600, 0x778e6a53
1,      99960,      99960,     1024,     4096, 0x468ce6d9
1,     100984,     100984,      446,     1784, 0xea196add
0,      35328,      35328,      512,   153600, 0xbc848ff3
1,     101430,     101430,     1024,     4096, 0x0f0ac749
1,     102454,     102454,      446,     1784, 0xce9d4395
0,      35840,      35840,      512,   153600, 0xb60338f3
1,     102900,     102900,     1024,     4096, 0x0c884a1c
1,     103924,     103924,      446,     1784, 0x950455ab
0,      36352,      36352,      512,   153600, 0x4997eaa8
1,     104370,     104370,     1024,     4096, 0x65db0992
1,     105394,     105394,      446,     1784, 0xf4f66abf
0,      36864,      36864,      512,   153600, 0x88c57b83
1,     105840,     105840,     1024,     4096, 0xbd655773
1,     106864,     106864,      446,     1784, 0x5f8b8759
0,      37376,      37376,      512,   153600, 0x5ba8c529
1,     107310,     107310,     1024,     4096, 0xa3a3c529
1,     108334,     108334,      446,     1784, 0x7caadce6
0,      37888,      37888,      512,   153600, 0x6bdc24bb
1,     108780,     108780,     1024,     4096, 0xac26f2e7
1,     109804,     109804,      446,     1784, 0xa51d33b1
0,      38400,      38400,      512,   153600, 0xf0fd5972
1,     110250,     110250,     1024,     4096, 0xfe4870f1
1,     111274,     111274,      446,     1784, 0xbf1eb519
0,      38912,      38912,      512,   153600, 0x43050243
1,     111720,     111720,     1024,     4096, 0x4d832a94
1,     112744,     112744,      446,     1784, 0xcd8f1cb9
0,      39424,      39424,      512,   153600, 0xc2b0ac42
1,     113190,     113190,     1024,     4096, 0xfbc25298
1,     114214,     114214,      446,     1784, 0x54b75225
0,      39936,      39936,      512,   153600, 0xc09da74e
1,     114660,     114660,     1024,     4096, 0x459d48c8
1,     115684,     115684,      446,     1784, 0xbcb37ae9
0,      40448,      40448,      512,   153600, 0x2c09b205
1,     116130,     116130,     1024,     4096, 0xb1f585fd
1,     117154,     117154,      446,     1784, 0x643607a3
0,      40960,      40960,      512,   153600, 0x606da18b
1,     117600,     117600,     1024,     4096, 0x411d8498
1,     118624,     118624,      446,     1784, 0xc9d58bdd
0,      41472,      41472,      512,   153600, 0x95843c71
1,     119070,     119070,     1024,     4096, 0x76f6b45f
1,     120094,     120094,      446,     1784, 0x96bd82d3
0,      41984,      41984,      512,   153600, 0x3eceac57
1,     120540,     120540,     1024,     4096, 0x2dc61c74
1,     121564,     121564,      446,     1784, 0x27c7b92f
0,      42496,      42496,      512,   153600, 0x0085e1af
1,     122010,     122010,     1024,     4096, 0x9baa16ca
1,     123034,     123034,      446,     1784, 0xf7c2c251
0,      43008,      43008,      512,   153600, 0x1b062e22
1,     123480,     123480,     1024,     4096, 0x2199b27d
1,     124504,     124504,      446,     1784, 0xfdd7bbb9
0,      43520,      43520,      512,   153600, 0x18924118
1,     124950,     124950,     1024,     4096, 0xa6c06cfa
1,     125974,     125974,      446,     1784, 0xaead71f5
0,      44032,      44032,      512,   153600, 0x7eaeb88d
1,     126420,     126420,     1024,     4096, 0xf6a204e8
1,     127444,     127444,      446,     1784, 0xdb728c5d
0,      44544,      44544,      512,   153600, 0x9ff456e7
1,     127890,     127890,     1024,     4096, 0xcf6edc79
1,     128914,     128914,      446,     1784, 0x404285a7
0,      45056,      45056,      512,   153600, 0xd94b3b68
1,     129360,     129360,     1024,     4096, 0x18650866
1,     130384,     130384,      446,     1784, 0x693c8aab
0,      45568,      45568,      512,   153600, 0xcf47318f
1,     130830,     130830,     1024,     4096, 0xb3aea549
1,     131854,     131854,      446,     1784, 0xd6616101
0,      46080,      46080,      512,   153600, 0xb89e177e
1,     132300,     132300,     1024,     4096, 0x0e7a104c
1,     133324,     133324,      446,     1784, 0xed5a9c7d
0,      46592,      46592,      512,   153600, 0xceacc04a
1,     133770,     133770,     1024,     4096, 0xa04a0112
1,     134794,     134794,      446,     1784, 0x199ee6cd
0,      47104,      47104,      512,   153600, 0xe8232a6a
1,     135240,     135240,     1024,     4096, 0xf16abc71
1,     136264,     136264,      446,     1784, 0x2dc293f7
0,      47616,      47616,      512,   153600, 0x6333383a
1,     136710,     136710,     1024,     4096, 0x8972116c
1,     137734,     137734,      446,     1784, 0xe97ceac3
0,      48128,      48128,      512,   153600, 0x68366cf0
1,     138180,     138180,     1024,     4096, 0xe28aa2ec
1,     139204,     139204,      446,     1784, 0xbc3bc39f
0,      48640,      48640,      512,   153600, 0xc4c590a0
1,     139650,     139650,     1024,     4096, 0xde1c28d0
1,     140674,     140674,      446,     1784, 0xdc625a8d
0,      49152,      49152,      512,   153600, 0x669bf752
1,     141120,     141120,     1024,     4096, 0x875742d8
1,     142144,     142144,      446,     1784, 0xd020164b
0,      49664,      49664,      512,   153600, 0x8f94963d
1,     142590,     142590,     1024,     4096, 0x1611bf13
1,     143614,     143614,      446,     1784, 0xa4cd6385
0,      50176,      50176,      512,   153600, 0x632d611d
1,     144060,     144060,     1024,     4096, 0xc11654fd
1,     145084,     145084,      446,     1784, 0x2f6f44bf
0,      50688,      50688,      512,   153600, 0xcc2d5269
1,     145530,     145530,     1024,     4096, 0x83e7b087
1,     146554,     146554,      446,     1784, 0x854ce88c
0,      51200,      51200,      512,   153600, 0x1b8f52a9
1,     147000,     147000,     1024,     4096, 0x37b182d5
1,     148024,     148024,      446,     1784, 0xede3ed44
0,      51712,      51712,      512,   153600, 0xfac90aa6
1,     148470,     148470,     1024,     4096, 0xd75fb899
1,     149494,     149494,      446,     1784, 0x467f3298
0,      52224,      52224,      512,   153600, 0x24fc4e86
1,     149940,     149940,     1024,     4096, 0x6165792d
1,     150964,     150964,      446,     1784, 0x9387730f
0,      52736,      52736,      512,   153600, 0x13816df9
1,     151410,     151410,     1024,     4096, 0xd54b54c0
1,     152434,     152434,      446,     1784, 0x452966ab
0,      53248,      53248,      512,   153600, 0x9a88a076
1,     152880,     152880,     1024,     4096, 0xb3907686
1,     153904,     153904,      446,     1784, 0x4ea57eb5
0,      53760,      53760,      512,   153600, 0x1ec8b004
1,     154350,     154350,     1024,     4096, 0x6fbb27a8
1,     155374,     155374,      446,     1784, 0x2fd0a9c1
0,      54272,      54272,      512,   153600, 0x40bd1756
1,     155820,     155820,     1024,     4096, 0x9f001552
1,     156844,     156844,      446,     1784, 0xb27b993d
0,      54784,      54784,      512,   153600, 0x578fcb50
1,     157290,     157290,     1024,     4096, 0x589f84b2
1,     158314,     158314,      446,     1784, 0x22dbb979
0,      55296,      55296,      512,   153600, 0x08a7713f
1,     158760,     158760,     1024,     4096, 0xad84be69
1,     159784,     159784,      446,     1784, 0x620bf1fd
0,      55808,      55808,      512,   153600, 0xd3fe74b5
1,     160230,     160230,     1024,     4096, 0x239eb1ab
1,     161254,     161254,      446,     1784, 0xe6fa893f
0,      56320,      56320,      512,   153600, 0xb042233a
1,     161700,     161700,     1024,     4096, 0xcfe0a3fe
1,     162724,     162724,      446,     1784, 0x2672746b
0,      56832,      56832,      512,   153600, 0xe6fce86f
1,     163170,     163170,     1024,     4096, 0x65970184
1,     164194,     164194,      446,     1784, 0xb1ed3287
0,      57344,      57344,      512,   153600, 0x6f3636e4
1,     164640,     164640,     1024,     4096, 0xd3432b2c
1,     165664,     165664,      446,     1784, 0xb520421b
0,      57856,      57856,      512,   153600, 0xd5a55912
1,     166110,     166110,     1024,     4096, 0xd2f49e70
1,     167134,     167134,      446,     1784, 0x9ed2acbf
0,      58368,      58368,      512,   153600, 0x431d930a
1,     167580,     167580,     1024,     4096, 0x108db4a8
1,     168604,     168604,      446,     1784, 0x70d8d2a3
0,      58880,      58880,      512,   153600, 0x35c1ab3c
1,     169050,     169050,     1024,     4096, 0x424d7df4
1,     170074,     170074,      446,     1784, 0x84a8716b
0,      59392,      59392,      512,   153600, 0x238f0e81
1,     170520,     170520,     1024,     4096, 0xa8811998
1,     171544,     171544,      446,     1784, 0x733e6173
0,      59904,      59904,      512,   153600, 0xe30be1c9
1,     171990,     171990,     1024,     4096, 0x060ffbdd
1,     173014,     173014,      446,     1784, 0xdc178c1d
0,      60416,      60416,      512,   153600, 0x07ba7bfe
1,     173460,     173460,     1024,     4096, 0xe6a61b46
1,     174484,     174484,      446,     1784, 0x61f86e21
0,      60928,      60928,      512,   153600, 0x4f3c8ae6
1,     174930,     174930,     1024,     4096, 0x50da570e
1,     175954,     175954,      446,     1784, 0x708ba81b
0,      61440,      61440,      512,   153600, 0x45ead8ca
1,     176400,     176400,     1024,     4096, 0xb5878196
1,     177424,     177424,      446,     1784, 0xefc4d3e1
0,      61952,      61952,      512,   153600, 0x4f2fb3ac
1,     177870,     177870,     1024,     4096, 0x1fdf4acf
1,     178894,     178894,      446,     1784, 0x8c0081c9
0,      62464,      62464,      512,   153600, 0xc69f01c4
1,     179340,     179340,     1024,     4096, 0x8fd63380
1,     180364,     180364,      446,     1784, 0x1f64c8e2
0,      62976,      62976,      512,   153600, 0x652c5ea8
1,     180810,     180810,     1024,     4096, 0x0af93f7c
1,     181834,     181834,      446,     1784, 0x3538b891
0,      63488,      63488,      512,   153600, 0xf40ae014
1,     182280,     182280,     1024,     4096, 0xc6eff9cd
1,     183304,     183304,      446,     1784, 0xe93fa22f
0,      64000,      64000,      512,   153600, 0xdf9a79e3
1,     183750,     183750,     1024,     4096, 0xf17a59e8
1,     184774,     184774,      446,     1784, 0x58aa878d
0,      64512,      64512,      512,   153600, 0xd8494c5e
1,     185220,     185220,     1024,     4096, 0xb327c975
1,     186244,     186244,      446,     1784, 0x00478359
0,      65024,      65024,      512,   153600, 0x3c79afdf
1,     186690,     186690,     1024,     4096, 0x539693c9
1,     187714,     187714,      446,     1784, 0x0d0fd76f
0,      65536,      65536,      512,   153600, 0x68cbb54d
1,     188160,     188160,     1024,     4096, 0x342e1ce4
1,     189184,     189184,      446,     1784, 0xa48031f5
0,      66048,      66048,      512,   153600, 0x4a884686
1,     189630,     189630,     1024,     4096, 0x01a07bad
1,     190654,     190654,      446,     1784, 0x96bb3d93
0,      66560,      66560,      512,   153600, 0x4a06f06f
1,     191100,     191100,     1024,     4096, 0xa31858e9
1,     192124,     192124,      446,     1784, 0x7586c3f5
0,      67072,      67072,      512,   153600, 0xaa1156f3
1,     192570,     192570,     1024,     4096, 0x212b6dd9
1,     193594,     193594,      446,     1784, 0x71cf745d
0,      67584,      67584,      512,   153600, 0xd04f1d40
1,     194040,     194040,     1024,     4096, 0x88ecf037
1,     195064,     195064,      446,     1784, 0xc6e004d3
0,      68096,      68096,      512,   153600, 0x487ac6ee
1,     195510,     195510,     1024,     4096, 0xdff9181e
1,     196534,     196534,      446,     1784, 0x75a40cf5
0,      68608,      68608,      512,   153600, 0x2dae7bf1
1,     196980,     196980,     1024,     4096, 0x7a19b0f5
1,     198004,     198004,      446,     1784, 0xd974df3b
0,      69120,      69120,      512,   153600, 0x8e291cd6
1,     198450,     198450,     1024,     4096, 0x24366461
1,     199474,     199474,      446,     1784, 0xf18bf082
0,      69632,      69632,      512,   153600, 0x853efb58
1,     199920,     199920,     1024,     4096, 0x91a7c157
1,     200944,     200944,      446,     1784, 0x77264c77
0,      70144,      70144,      512,   153600, 0xfcf47f39
1,     201390,     201390,     1024,     4096, 0x4b46dc07
1,     202414,     202414,      446,     1784, 0x2053e1ad
0,      70656,      70656,      512,   153600, 0x463a9086
1,     202860,     202860,     1024,     4096, 0x8454239c
1,     203884,     203884,      446,     1784, 0xf5b8455b
0,      71168,      71168,      512,   153600, 0x6f644d22
1,     204330,     204330,     1024,     4096, 0xc46da722
1,     205354,     205354,      446,     1784, 0x81ceaf39
0,      71680,      71680,      512,   153600, 0x09772db5
1,     205800,     205800,     1024,     4096, 0xc36f3de6
1,     206824,     206824,      446,     1784, 0x6d845683
0,      72192,      72192,      512,   153600, 0x056ad0bb
1,     207270,     207270,     1024,     4096, 0x7d54ac1e
1,     208294,     208294,      446,     1784, 0x1a0281b3
0,      72704,      72704,      512,   153600, 0x76d2cc92
1,     208740,     208740,     1024,     4096, 0x585a7fa5
1,     209764,     209764,      446,     1784, 0xa808903f
0,      73216,      73216,      512,   153600, 0x4644b131
1,     210210,     210210,     1024,     4096, 0x8fb85309
1,     211234,     211234,      446,     1784, 0x6b443309
0,      73728,      73728,      512,   153600, 0x22cea58a
1,     211680,     211680,     1024,     4096, 0xbbfb5eee
1,     212704,     212704,      446,     1784, 0xcd635235
0,      74240,      74240,      512,   153600, 0xcf4c8ad0
1,     213150,     213150,     1024,     4096, 0x533cda3f
1,     214174,     214174,      446,     1784, 0xef3a4f1f
0,      74752,      74752,      512,   153600, 0xe9139f63
1,     214620,     214620,     1024,     4096, 0x24433842
1,     215644,     215644,      446,     1784, 0x8cdde539
0,      75264,      75264,      512,   153600, 0x1d51685b
1,     216090,     216090,     1024,     4096, 0x7e690b62
1,     217114,     217114,      446,     1784, 0x2ea3db9d
0,      75776,      75776,      512,   153600, 0xc1cdadd2
1,     217560,     217560,     1024,     4096, 0xe6116438
1,     218584,     218584,      446,     1784, 0x70a8e165
0,      76288,      76288,      512,   153600, 0x2d79a6c6
1,     219030,     219030,     1024,     4096, 0xedca67dc
1,     220054,     220054,      446,     1784, 0x350ddf83
0,      76800,      76800,      512,   153600, 0x0fa2b1df
1,     220500,     220500,     1024,     4096, 0xc4a68a70
1,     221524,     221524,      446,     1784, 0x6c7e1b23
0,      77312,      77312,      512,   153600, 0x7ea09d36
1,     221970,     221970,     1024,     4096, 0x4987e621
1,     222994,     222994,      446,     1784, 0x30cb3951
0,      77824,      77824,      512,   153600, 0x7ff8ce3c
1,     223440,     223440,     1024,     4096, 0x4469b14f
1,     224464,     224464,      446,     1784, 0x82218955
0,      78336,      78336,      512,   153600, 0x3951f4a2
1,     224910,     224910,     1024,     4096, 0x4558f97e
1,     225934,     225934,      446,     1784, 0xabc4b839
0,      78848,      78848,      512,   153600, 0x37a128f6
1,     226380,     226380,     1024,     4096, 0xe9ef89db
1,     227404,     227404,      446,     1784, 0xbe423c33
0,      79360,      79360,      512,   153600, 0x4203531d
1,     227850,     227850,     1024,     4096, 0x8f2652f3
1,     228874,     228874,      446,     1784, 0xea7fe27e
0,      79872,      79872,      512,   153600, 0x687d9bfd
1,     229320,     229320,     1024,     4096, 0x1d77403d
1,     230344,     230344,      446,     1784, 0x7374f1f8
0,      80384,      80384,      512,   153600, 0x1bf7a21d
1,     230790,     230790,     1024,     4096, 0x6ad28f09
1,     231814,     231814,      446,     1784, 0x7aa1941f
0,      80896,      80896,      512,   153600, 0x458703d3
1,     232260,     232260,     1024,     4096, 0x7be22c7c
1,     233284,     233284,      446,     1784, 0x10be63cb
0,      81408,      81408,      512,   153600, 0x56092412
1,     233730,     233730,     1024,     4096, 0x30dd800a
1,     234754,     234754,      446,     1784, 0x96f6233b
0,      81920,      81920,      512,   153600, 0x1e1772cd
1,     235200,     235200,     1024,     4096, 0x52eae0fb
1,     236224,     236224,      446,     1784, 0xe8e58827
0,      82432,      82432,      512,   153600, 0xdd7b7b50
1,     236670,     236670,     1024,     4096, 0x8ab401cf
1,     237694,     237694,      446,     1784, 0x02075397
0,      82944,      82944,      512,   153600, 0xe790b37e
1,     238140,     238140,     1024,     4096, 0x27b00f95
1,     239164,     239164,      446,     1784, 0x06c83fc5
0,      83456,      83456,      512,   153600, 0xca1de39f
1,     239610,     239610,     1024,     4096, 0x7c710b2a
1,     240634,     240634,      446,     1784, 0xd1f64933
0,      83968,      83968,      512,   153600, 0x52d51d98
1,     241080,     241080,     1024,     4096, 0x63211ab6
1,     242104,     242104,      446,     1784, 0xbab91297
0,      84480,      84480,      512,   153600, 0x5fd74b65
1,     242550,     242550,     1024,     4096, 0x10f4e7d9
1,     243574,     243574,      446,     1784, 0x47535f2d
0,      84992,      84992,      512,   153600, 0xabad8c56
1,     244020,     244020,     1024,     4096, 0x55e50fb4
1,     245044,     245044,      446,     1784, 0xaa38ee02
0,      85504,      85504,      512,   153600, 0x61a8a7ad
1,     245490,     245490,     1024,     4096, 0x549aef22
1,     246514,     246514,      446,     1784, 0xd2f06abd
0,      86016,      86016,      512,   153600, 0xca42009e
1,     246960,     246960,     1024,     4096, 0x9344ff4f
1,     247984,     247984,      446,     1784, 0xb6cd6887
0,      86528,      86528,      512,   153600, 0xac652289
1,     248430,     248430,     1024,     4096, 0x3e02f6d5
1,     249454,     249454,      446,     1784, 0x79d38f99
0,      87040,      87040,      512,   153600, 0xfd50354b
1,     249900,     249900,     1024,     4096, 0x30d811a2
1,     250924,     250924,      446,     1784, 0x0f00cc03
0,      87552,      87552,      512,   153600, 0xd83838e7
1,     251370,     251370,     1024,     4096, 0xade551b3
1,     252394,     252394,      446,     1784, 0x1232881b
0,      88064,      88064,      512,   153600, 0x33bb7271
1,     252840,     252840,     1024,     4096, 0x52dd5319
1,     253864,     253864,      446,     1784, 0x37570917
0,      88576,      88576,      512,   153600, 0x67389a1d
1,     254310,     254310,     1024,     4096, 0xea11c66d
1,     255334,     255334,      446,     1784, 0x93235d85
0,      89088,      89088,      512,   153600, 0x5c75cc69
1,     255780,     255780,     1024,     4096, 0x843818ec
1,     256804,     256804,      446,     1784, 0x932298cb
0,      89600,      89600,      512,   153600, 0xd328e92c
1,     257250,     257250,     1024,     4096, 0xd6c817ea
1,     258274,     258274,      446,     1784, 0xe189af95
0,      90112,      90112,      512,   153600, 0x17f32189
1,     258720,     258720,     1024,     4096, 0xfb16d5a7
1,     259744,     259744,      446,     1784, 0x87fede95
0,      90624,      90624,      512,   153600, 0xa8772b04
1,     260190,     260190,     1024,     4096, 0xccc6c498
1,     261214,     261214,      446,     1784, 0xe128d173
0,      91136,      91136,      512,   153600, 0x00c769e5
1,     261660,     261660,     1024,     4096, 0x5f9b5bfc
1,     262684,     262684,      446,     1784, 0x08a067e5
0,      91648,      91648,      512,   153600, 0xee727fbe
1,     263130,     263130,     1024,     4096, 0x0cc566d1
1,     264154,     264154,      446,     1784, 0x667135b1
0,      92160,      92160,      512,   153600, 0x8dfbc822
1,     264600,     264600,     1024,     4096, 0x2045a485
1,     265624,     265624,      446,     1784, 0x3b26a391
0,      92672,      92672,      512,   153600, 0xa1f6c965
1,     266070,     266070,     1024,     4096, 0xd7ab8cb7
1,     267094,     267094,      446,     1784, 0xb5bcb20f
0,      93184,      93184,      512,   153600, 0x4816ee32
1,     267540,     267540,     1024,     4096, 0x3969776c
1,     268564,     268564,      446,     1784, 0x6fa886bb
0,      93696,      93696,      512,   153600, 0xeb78081c
1,     269010,     269010,     1024,     4096, 0x9cd6174c
1,     270034,     270034,      446,     1784, 0xeafa87c7
0,      94208,      94208,      512,   153600, 0x9f34237e
1,     270480,     270480,     1024,     4096, 0x941b1cda
1,     271504,     271504,      446,     1784, 0x1e2d47bd
0,      94720,      94720,      512,   153600, 0xdc17369b
1,     271950,     271950,     1024,     4096, 0x40dcd483
1,     272974,     272974,      446,     1784, 0xbe6f7fc3
0,      95232,      95232,      512,   153600, 0x7d606115
1,     273420,     273420,     1024,     4096, 0x53d5b26f
1,     274444,     274444,      446,     1784, 0x5aeff706
0,      95744,      95744,      512,   153600, 0xf6c85c17
1,     274890,     274890,     1024,     4096, 0xe39b67bf
1,     275914,     275914,      446,     1784, 0x2f656e31
0,      96256,      96256,      512,   153600, 0x45218db1
1,     276360,     276360,     1024,     4096, 0xefa8d89d
1,     277384,     277384,      446,     1784, 0xe796acd9
0,      96768,      96768,      512,   153600, 0xf2cd9c1b
1,     277830,     277830,     1024,     4096, 0x306790e3
1,     278854,     278854,      446,     1784, 0x1edd93bd
0,      97280,      97280,      512,   153600, 0x2f6da59f
1,     279300,     279300,     1024,     4096, 0x94bc93e9
1,     280324,     280324,      446,     1784, 0xb23ce881
0,      97792,      97792,      512,   153600, 0x0c99a4dc
1,     280770,     280770,     1024,     4096, 0x635ffe1e
1,     281794,     281794,      446,     1784, 0x4fbc187f
0,      98304,      98304,      512,   153600, 0xed19bf6c
1,     282240,     282240,     1024,     4096, 0x3ac185c6
1,     283264,     283264,      446,     1784, 0x734fcde1
0,      98816,      98816,      512,   153600, 0x277ad634
1,     283710,     283710,     1024,     4096, 0x71c8fbfd
1,     284734,     284734,      446,     1784, 0x22555a61
0,      99328,      99328,      512,   153600, 0x9833ec85
1,     285180,     285180,     1024,     4096, 0x062590f6
1,     286204,     286204,      446,     1784, 0xeb8558df
0,      99840,      99840,      512,   153600, 0x9b99fd0a
1,     286650,     286650,     1024,     4096, 0x87a8db37
1,     287674,     287674,      446,     1784, 0x38b3942d
0,     100352,     100352,      512,   153600, 0x1922173c
1,     288120,     288120,     1024,     4096, 0xd40a83dd
1,     289144,     289144,      446,     1784, 0xaf43c1f5
0,     100864,     100864,      512,   153600, 0x623d235d
1,     289590,     289590,     1024,     4096, 0x18c229bc
1,     290614,     290614,      446,     1784, 0x3c2a8fcd
0,     101376,     101376,      512,   153600, 0x028653ab
1,     291060,     291060,     1024,     4096, 0xc8310a42
1,     292084,     292084,      446,     1784, 0xc4197417
0,     101888,     101888,      512,   153600, 0xcb9166c3
1,     292530,     292530,     1024,     4096, 0xb4685828
1,     293554,     293554,      446,     1784, 0xad197b0f
0,     102400,     102400,      512,   153600, 0xd1258bb8
1,     294000,     294000,     1024,     4096, 0x2dd4fd83
1,     295024,     295024,      446,     1784, 0x59de48cb
0,     102912,     102912,      512,   153600, 0x0cc49028
1,     295470,     295470,     1024,     4096, 0x69b7aeab
1,     296494,     296494,      446,     1784, 0xffce8529
0,     103424,     103424,      512,   153600, 0xad98ae02
1,     296940,     296940,     1024,     4096, 0x454ba439
1,     297964,     297964,      446,     1784, 0x57205519
0,     103936,     103936,      512,   153600, 0xb77bc899
1,     298410,     298410,     1024,     4096, 0xea00810a
1,     299434,     299434,      446,     1784, 0x137924d8
0,     104448,     104448,      512,   153600, 0x1c35e35d
1,     299880,     299880,     1024,     4096, 0xa4eaac69
1,     300904,     300904,      446,     1784, 0x09dfd141
0,     104960,     104960,      512,   153600, 0x433dfc8c
1,     301350,     301350,     1024,     4096, 0x60ef5484
1,     302374,     302374,      446,     1784, 0x84dc684b
0,     105472,     105472,      512,   153600, 0xe16022ff
1,     302820,     302820,     1024,     4096, 0xe818f697
1,     303844,     303844,      446,     1784, 0xc5cf7a9d
0,     105984,     105984,      512,   153600, 0xd2a822e7
1,     304290,     304290,     1024,     4096, 0x8c96b6db
1,     305314,     305314,      446,     1784, 0x38515f87
0,     106496,     106496,      512,   153600, 0xe842467b
1,     305760,     305760,     1024,     4096, 0x8ffed1ad
1,     306784,     306784,      446,     1784, 0x55ac695b
0,     107008,     107008,      512,   153600, 0xe2f05c0e
1,     307230,     307230,     1024,     4096, 0x0ee9b57c
1,     308254,     308254,      446,     1784, 0x7082ed51
0,     107520,     107520,      512,   153600, 0xc1bf54d3
1,     308700,     308700,     1024,     4096, 0x36f0900d
1,     309724,     309724,      446,     1784, 0x00da227f
0,     108032,     108032,      512,   153600, 0x88d5518d
1,     310170,     310170,     1024,     4096, 0x83a947f6
1,     311194,     311194,      446,     1784, 0xf63fdbe5
0,     108544,     108544,      512,   153600, 0xd54d6025
1,     311640,     311640,     1024,     4096, 0x515ed54f
1,     312664,     312664,      446,     1784, 0xd60ba161
0,     109056,     109056,      512,   153600, 0x8a326415
1,     313110,     313110,     1024,     4096, 0x112734d1
1,     314134,     314134,      446,     1784, 0xd2fd13bd
0,     109568,     109568,      512,   153600, 0x67b76dd6
1,     314580,     314580,     1024,     4096, 0x698a1e3c
1,     315604,     315604,      446,     1784, 0x7ca1e38c
0,     110080,     110080,      512,   153600, 0xb5996c68
1,     316050,     316050,     1024,     4096, 0x507231c0
1,     317074,     317074,      446,     1784, 0x67a500d5
0,     110592,     110592,      512,   153600, 0xac9f75bf
1,     317520,     317520,     1024,     4096, 0x5170a7a6
1,     318544,     318544,      446,     1784, 0x2b9529cf
0,     111104,     111104,      512,   153600, 0xe2ba6258
1,     318990,     318990,     1024,     4096, 0x98a42ffe
1,     320014,     320014,      446,     1784, 0x329ea847
0,     111616,     111616,      512,   153600, 0x4b1c6cf4
1,     320460,     320460,     1024,     4096, 0x859a8ba9
1,     321484,     321484,      446,     1784, 0xd14818ab
0,     112128,     112128,      512,   153600, 0x53635abd
1,     321930,     321930,     1024,     4096, 0xdb166f2d
1,     322954,     322954,      446,     1784, 0x925d2a35
0,     112640,     112640,      512,   153600, 0xa72053ca
1,     323400,     323400,     1024,     4096, 0x30d66819
1,     324424,     324424,      446,     1784, 0x376da4cf
0,     113152,     113152,      512,   153600, 0x60322fd6
1,     324870,     324870,     1024,     4096, 0xaa9f870b
1,     325894,     325894,      446,     1784, 0xe9be4c81
0,     113664,     113664,      512,   153600, 0x8f9a1e6b
1,     326340,     326340,     1024,     4096, 0xddec3ff0
1,     327364,     327364,      446,     1784, 0x639cb59a
0,     114176,     114176,      512,   153600, 0xf097fe50
1,     327810,     327810,     1024,     4096, 0xcadf4483
1,     328834,     328834,      446,     1784, 0xdcd26053
0,     114688,     114688,      512,   153600, 0xaea0dae9
1,     329280,     329280,     1024,     4096, 0xc0449c77
1,     330304,     330304,      446,     1784, 0x1590e0b6
0,     115200,     115200,      512,   153600, 0x04bbac93
1,     330750,     330750,     1024,     4096, 0x54f69913
1,     331774,     331774,      446,     1784, 0x65696d65
0,     115712,     115712,      512,   153600, 0xebb18354
1,     332220,     332220,     1024,     4096, 0x12fcfa57
1,     333244,     333244,      446,     1784, 0x8f51907f
0,     116224,     116224,      512,   153600, 0x2b213a30
1,     333690,     333690,     1024,     4096, 0x24a2526a
1,     334714,     334714,      446,     1784, 0x25fc3331
0,     116736,     116736,      512,   153600, 0x4c5b0b38
1,     335160,     335160,     1024,     4096, 0x08e644c8
1,     336184,     336184,      446,     1784, 0x94f64bc1
0,     117248,     117248,      512,   153600, 0x8c97c569
1,     336630,     336630,     1024,     4096, 0x824b40f1
1,     337654,     337654,      446,     1784, 0xa06edd25
0,     117760,     117760,      512,   153600, 0xbb5b745e
1,     338100,     338100,     1024,     4096, 0x46458d9f
1,     339124,     339124,      446,     1784, 0xdce0ea1a
0,     118272,     118272,      512,   153600, 0x59741515
1,     339570,     339570,     1024,     4096, 0xdcd0bb2f
1,     340594,     340594,      446,     1784, 0x2323b251
0,     118784,     118784,      512,   153600, 0xe2e2c3cc
1,     341040,     341040,     1024,     4096, 0x45fa0f48
1,     342064,     342064,      446,     1784, 0x9da7521f
0,     119296,     119296,      512,   153600, 0xa14b6684
1,     342510,     342510,     1024,     4096, 0xb0b906cb
1,     343534,     343534,      446,     1784, 0x78521655
0,     119808,     119808,      512,   153600, 0x8cbf197b
1,     343980,     343980,     1024,     4096, 0xbec9038a
1,     345004,     345004,      446,     1784, 0xd43c4e73
0,     120320,     120320,      512,   153600, 0x4bf3da6d
1,     345450,     345450,     1024,     4096, 0x41501f9b
1,     346474,     346474,      446,     1784, 0x168015c4
0,     120832,     120832,      512,   153600, 0xcdb1989a
1,     346920,     346920,     1024,     4096, 0x759a70ec
1,     347944,     347944,      446,     1784, 0xe792a9cb
0,     121344,     121344,      512,   153600, 0xb0d92b3e
1,     348390,     348390,     1024,     4096, 0xa727c311
1,     349414,     349414,      446,     1784, 0xdf0c6bfb
0,     121856,     121856,      512,   153600, 0x71bdf443
1,     349860,     349860,     1024,     4096, 0x6019cc7b
1,     350884,     350884,      446,     1784, 0x0c74bd11
0,     122368,     122368,      512,   153600, 0x58b48470
1,     351330,     351330,     1024,     4096, 0x62702582
1,     352354,     352354,      446,     1784, 0xd5a0429d
0,     122880,     122880,      512,   153600, 0x35421fc5
1,     352800,     352800,     1024,     4096, 0x0066dca7
1,     353824,     353824,      446,     1784, 0xf782ba29
0,     123392,     123392,      512,   153600, 0xe8e29805
1,     354270,     354270,     1024,     4096, 0x1e390f38
1,     355294,     355294,      446,     1784, 0x33784aaf
0,     123904,     123904,      512,   153600, 0x2ea13245
1,     355740,     355740,     1024,     4096, 0x9965bdf7
1,     356764,     356764,      446,     1784, 0x023e36b7
0,     124416,     124416,      512,   153600, 0xdf0ac41e
1,     357210,     357210,     1024,     4096, 0x5f469193
1,     358234,     358234,      446,     1784, 0xaf1ff292
0,     124928,     124928,      512,   153600, 0x85b952d2
1,     358680,     358680,     1024,     4096, 0xb776a7b9
1,     359704,     359704,      446,     1784, 0x96fe880b
0,     125440,     125440,      512,   153600, 0xa2afc888
1,     360150,     360150,     1024,     4096, 0x6697f82b
1,     361174,     361174,      446,     1784, 0xedc3a337
0,     125952,     125952,      512,   153600, 0x676e645e
1,     361620,     361620,     1024,     4096, 0xba23736f
1,     362644,     362644,      446,     1784, 0x53c4102b
0,     126464,     126464,      512,   153600, 0xf1a8c68a
1,     363090,     363090,     1024,     4096, 0x4769a9f9
1,     364114,     364114,      446,     1784, 0xb4d942d3
0,     126976,     126976,      512,   153600, 0xe7f670cb
1,     364560,     364560,     1024,     4096, 0x18a1c03f
1,     365584,     365584,      446,     1784, 0x3177f9fc
0,     127488,     127488,      512,   153600, 0x8317ae95
1,     366030,     366030,     1024,     4096, 0x05ce5414
1,     367054,     367054,      446,     1784, 0x8ee6fb89
0,     128000,     128000,      512,   153600, 0x67e4fcd7
1,     367500,     367500,     1024,     4096, 0xf11c8cb5
1,     368524,     368524,      446,     1784, 0x0e469c15
0,     128512,     128512,      512,   153600, 0x7d0ffc66
1,     368970,     368970,     1024,     4096, 0xe63da8a5
1,     369994,     369994,      446,     1784, 0xfcafeb4f
0,     129024,     129024,      512,   153600, 0xbddf4729
1,     370440,     370440,     1024,     4096, 0xbdc1e8a7
1,     371464,     371464,      446,     1784, 0xac149ad5
0,     129536,     129536,      512,   153600, 0x361e7eb0
1,     371910,     371910,     1024,     4096, 0x85a2cd8d
1,     372934,     372934,      446,     1784, 0x4fc05897
0,     130048,     130048,      512,   153600, 0xe9e7c3b2
1,     373380,     373380,     1024,     4096, 0x2a238804
1,     374404,     374404,      446,     1784, 0x7e427adf
0,     130560,     130560,      512,   153600, 0x785005cf
1,     374850,     374850,     1024,     4096, 0x2329c907
1,     375874,     375874,      446,     1784, 0x337155c5
0,     131072,     131072,      512,   153600, 0x80f67093
1,     376320,     376320,     1024,     4096, 0xd9345cef
1,     377344,     377344,      446,     1784, 0xf53e13b9
0,     131584,     131584,      512,   153600, 0x6f27ae48
1,     377790,     377790,     1024,     4096, 0xc49c1344
1,     378814,     378814,      446,     1784, 0xd5892caf
0,     132096,     132096,      512,   153600, 0x76582052
1,     379260,     379260,     1024,     4096, 0x4050bbcd
1,     380284,     380284,      446,     1784, 0xece810b0
0,     132608,     132608,      512,   153600, 0x156f60ce
1,     380730,     380730,     1024,     4096, 0xc5d8828f
1,     381754,     381754,      446,     1784, 0xf98c3bb3
0,     133120,     133120,      512,   153600, 0x922bbfee
1,     382200,     382200,     1024,     4096, 0xe8815ffa
1,     383224,     383224,      446,     1784, 0xbc404f55
0,     133632,     133632,      512,   153600, 0x4bc7fe5c
1,     383670,     383670,     1024,     4096, 0x9dba689a
1,     384694,     384694,      446,     1784, 0x63a8eef7
0,     134144,     134144,      512,   153600, 0x6e877e64
1,     385140,     385140,     1024,     4096, 0x5ca395af
1,     386164,     386164,      446,     1784, 0x4c3a022c
0,     134656,     134656,      512,   153600, 0xc32dfe51
1,     386610,     386610,     1024,     4096, 0xa37159fa
1,     387634,     387634,      446,     1784, 0xc6a99ba1
0,     135168,     135168,      512,   153600, 0x8f8e8f81
1,     388080,     388080,     1024,     4096, 0x29adc31d
1,     389104,     389104,      446,     1784, 0x62fd5171
0,     135680,     135680,      512,   153600, 0xdcd421d2
1,     389550,     389550,     1024,     4096, 0x3d2302c8
1,     390574,     390574,      446,     1784, 0x8e63b3f3
0,     136192,     136192,      512,   153600, 0x21a2e127
1,     391020,     391020,     1024,     4096, 0x3f02f775
1,     392044,     392044,      446,     1784, 0x673854c9
0,     136704,     136704,      512,   153600, 0x4b2e7b83
1,     392490,     392490,     1024,     4096, 0xe9321c94
1,     393514,     393514,      446,     1784, 0xfe0f78f5
0,     137216,     137216,      512,   153600, 0x78e25d19
1,     393960,     393960,     1024,     4096, 0x866fdb67
1,     394984,     394984,      446,     1784, 0xfe8f7281
0,     137728,     137728,      512,   153600, 0x165b2975
1,     395430,     395430,     1024,     4096, 0xa240a7ef
1,     396454,     396454,      446,     1784, 0x1f9c6ea5
0,     138240,     138240,      512,   153600, 0x43d10cc7
1,     396900,     396900,     1024,     4096, 0x2549e856
1,     397924,     397924,      446,     1784, 0xde909e7d
0,     138752,     138752,      512,   153600, 0x56c2d389
1,     398370,     398370,     1024,     4096, 0x551ea837
1,     399394,     399394,      446,     1784, 0x57776605
0,     139264,     139264,      512,   153600, 0xafe1d3ad
1,     399840,     399840,     1024,     4096, 0x819362ba
1,     400864,     400864,      446,     1784, 0xc231ef31
0,     139776,     139776,      512,   153600, 0x1963c981
1,     401310,     401310,     1024,     4096, 0x347b64eb
1,     402334,     402334,      446,     1784, 0x660ea623
0,     140288,     140288,      512,   153600, 0x6781d76b
1,     402780,     402780,     1024,     4096, 0x4791e65b
1,     403804,     403804,      446,     1784, 0x21fe23f9
0,     140800,     140800,      512,   153600, 0xec0bc403
1,     404250,     404250,     1024,     4096, 0x12eeaed1
1,     405274,     405274,      446,     1784, 0xfb504bc7
0,     141312,     141312,      512,   153600, 0x4500e575
1,     405720,     405720,     1024,     4096, 0x92afc4c3
1,     406744,     406744,      446,     1784, 0x61f40599
0,     141824,     141824,      512,   153600, 0xaff8bebd
1,     407190,     407190,     1024,     4096, 0x5f639be7
1,     408214,     408214,      446,     1784, 0xe90eea3c
0,     142336,     142336,      512,   153600, 0x484df01d
1,     408660,     408660,     1024,     4096, 0x9f170459
1,     409684,     409684,      446,     1784, 0x283f64a7
0,     142848,     142848,      512,   153600, 0xf2ece9da
1,     410130,     410130,     1024,     4096, 0x5563cc4b
1,     411154,     411154,      446,     1784, 0x22933f15
0,     143360,     143360,      512,   153600, 0xb017fe33
1,     411600,     411600,     1024,     4096, 0x4c026ee4
1,     412624,     412624,      446,     1784, 0x722846ed
0,     143872,     143872,      512,   153600, 0x478ee17a
1,     413070,     413070,     1024,     4096, 0x14a8afa3
1,     414094,     414094,      446,     1784, 0x582104c7
0,     144384,     144384,      512,   153600, 0xfcd7f8c3
1,     414540,     414540,     1024,     4096, 0xfdff1886
1,     415564,     415564,      446,     1784, 0x8667b363
0,     144896,     144896,      512,   153600, 0x7a900005
1,     416010,     416010,     1024,     4096, 0x7c26428e
1,     417034,     417034,      446,     1784, 0x95f88faa
0,     145408,     145408,      512,   153600, 0xf8c80f8d
1,     417480,     417480,     1024,     4096, 0x9392bf39
1,     418504,     418504,      446,     1784, 0xfcc080d7
0,     145920,     145920,      512,   153600, 0xc08e1934
1,     418950,     418950,     1024,     4096, 0x2897356a
1,     419974,     419974,      446,     1784, 0x2f6b7703
0,     146432,     146432,      512,   153600, 0x6964369b
1,     420420,     420420,     1024,     4096, 0xf32123ea
1,     421444,     421444,      446,     1784, 0x560f7243
0,     146944,     146944,      512,   153600, 0xf8162b3b
1,     421890,     421890,     1024,     4096, 0xc6c3577a
1,     422914,     422914,      446,     1784, 0x1de59f81
0,     147456,     147456,      512,   153600, 0x07b660ad
1,     423360,     423360,     1024,     4096, 0x1369e193
1,     424384,     424384,      446,     1784, 0xaab795db
0,     147968,     147968,      512,   153600, 0xc7d6655c
1,     424830,     424830,     1024,     4096, 0x554b3c34
1,     425854,     425854,      446,     1784, 0x0093913b
0,     148480,     148480,      512,   153600, 0xc4b48144
1,     426300,     426300,     1024,     4096, 0xa064feff
1,     427324,     427324,      446,     1784, 0x47d7ca5d
0,     148992,     148992,      512,   153600, 0xb664774a
1,     427770,     427770,     1024,     4096, 0x30fe531a
1,     428794,     428794,      446,     1784, 0x9b4d9781
0,     149504,     149504,      512,   153600, 0x2ba39a46
1,     429240,     429240,     1024,     4096, 0x411d32c8
1,     430264,     430264,      446,     1784, 0xca50c5d7
0,     150016,     150016,      512,   153600, 0x03fbac2d
1,     430710,     430710,     1024,     4096, 0xeddd01b5
1,     431734,     431734,      446,     1784, 0x23ff51cd
0,     150528,     150528,      512,   153600, 0xba74c1dd
1,     432180,     432180,     1024,     4096, 0xe1995b34
1,     433204,     433204,      446,     1784, 0x781a6f29
0,     151040,     151040,      512,   153600, 0xf08dd27b
1,     433650,     433650,     1024,     4096, 0x84895d36
1,     434674,     434674,      446,     1784, 0x92ffa513
0,     151552,     151552,      512,   153600, 0xc2e6f9d6
1,     435120,     435120,     1024,     4096, 0xe8433296
1,     436144,     436144,      446,     1784, 0x570a8435
0,     152064,     152064,      512,   153600, 0x14aee9f7
1,     436590,     436590,     1024,     4096, 0xe3cd14bc
1,     437614,     437614,      446,     1784, 0x7b8c75fb
0,     152576,     152576,      512,   153600, 0x8d5a1577
1,     438060,     438060,     1024,     4096, 0x377974ea
1,     439084,     439084,      446,     1784, 0x295acd13
0,     153088,     153088,      512,   153600, 0xb9af127b
1,     439530,     439530,     1024,     4096, 0x5a2b8662
1,     440554,     440554,      446,     1784, 0xaab7a9d5
0,     153600,     153600,      512,   153600, 0xce210c46
1,     441000,     441000,     1024,     4096, 0x35abf7f8
1,     442024,     442024,      446,     1784, 0xe75a7ce5
0,     154112,     154112,      512,   153600, 0x47aef975
1,     442470,     442470,     1024,     4096, 0xe440b22d
1,     443494,     443494,      446,     1784, 0x7cf7e770
0,     154624,     154624,      512,   153600, 0x1d120d46
1,     443940,     443940,     1024,     4096, 0x5f8d3e5a
1,     444964,     444964,      446,     1784, 0x664d859f
0,     155136,     155136,      512,   153600, 0xf0f21b0e
1,     445410,     445410,     1024,     4096, 0xcdab1b22
1,     446434,     446434,      446,     1784, 0xa9d97d01
0,     155648,     155648,      512,   153600, 0xd0032789
1,     446880,     446880,     1024,     4096, 0x759a2ff2
1,     447904,     447904,      446,     1784, 0x0e5c9a27
0,     156160,     156160,      512,   153600, 0x1a022a4c
1,     448350,     448350,     1024,     4096, 0x11927190
1,     449374,     449374,      446,     1784, 0xefc56707
0,     156672,     156672,      512,   153600, 0x324b4a52
1,     449820,     449820,     1024,     4096, 0x56194e3d
1,     450844,     450844,      446,     1784, 0x44e270af
0,     157184,     157184,      512,   153600, 0xddf63b50
1,     451290,     451290,     1024,     4096, 0x2f361010
1,     452314,     452314,      446,     1784, 0x6ef18515
0,     157696,     157696,      512,   153600, 0x86a66ac8
1,     452760,     452760,     1024,     4096, 0x3da5a9e8
1,     453784,     453784,      446,     1784, 0x838f50c9
0,     158208,     158208,      512,   153600, 0x0c0f6f3d
1,     454230,     454230,     1024,     4096, 0x4756eabf
1,     455254,     455254,      446,     1784, 0x9a793255
0,     158720,     158720,      512,   153600, 0x6ec8952d
1,     455700,     455700,     1024,     4096, 0xed07e75f
1,     456724,     456724,      446,     1784, 0xb7438d4b
0,     159232,     159232,      512,   153600, 0x463e82df
1,     457170,     457170,     1024,     4096, 0x556c2efa
1,     458194,     458194,      446,     1784, 0xcdbc3a99
0,     159744,     159744,      512,   153600, 0x01649c52
1,     458640,     458640,     1024,     4096, 0x81ddddec
1,     459664,     459664,      446,     1784, 0x12a58a65
0,     160256,     160256,      512,   153600, 0xd072a939
1,     460110,     460110,     1024,     4096, 0x8065547c
1,     461134,     461134,      446,     1784, 0x020a51af
0,     160768,     160768,      512,   153600, 0x4f18baef
1,     461580,     461580,     1024,     4096, 0xb5d86fe5
1,     462604,     462604,      446,     1784, 0xd1a3026f
0,     161280,     161280,      512,   153600, 0xf441c3de
1,     463050,     463050,     1024,     4096, 0x5d581678
1,     464074,     464074,      446,     1784, 0xe0e28ee5
0,     161792,     161792,      512,   153600, 0x10fde93c
1,     464520,     464520,     1024,     4096, 0xac42e35f
1,     465544,     465544,      446,     1784, 0x1148877f
0,     162304,     162304,      512,   153600, 0xe7b4d97d
1,     465990,     465990,     1024,     4096, 0x30c51875
1,     467014,     467014,      446,     1784, 0x8b5a7369
0,     162816,     162816,      512,   153600, 0x44b717b6
1,     467460,     467460,     1024,     4096, 0xbec82ce2
1,     468484,     468484,      446,     1784, 0x58472ece
0,     163328,     163328,      512,   153600, 0x63a32a2a
1,     468930,     468930,     1024,     4096, 0x1c4a2fa9
1,     469954,     469954,      446,     1784, 0x3fe172b9
0,     163840,     163840,      512,   153600, 0xbc1945ed
1,     470400,     470400,     1024,     4096, 0xfb696d55
1,     471424,     471424,      446,     1784, 0xdf528a0f
0,     164352,     164352,      512,   153600, 0xec67413e
1,     471870,     471870,     1024,     4096, 0x8d2ab691
1,     472894,     472894,      446,     1784, 0x1cfa6195
0,     164864,     164864,      512,   153600, 0xf2ba56a2
1,     473340,     473340,     1024,     4096, 0x7a9ee291
1,     474364,     474364,      446,     1784, 0xe084915f
0,     165376,     165376,      512,   153600, 0x5bd05b92
1,     474810,     474810,     1024,     4096, 0x19681160
1,     475834,     475834,      446,     1784, 0x0d9e4395
0,     165888,     165888,      512,   153600, 0x0e087801
1,     476280,     476280,     1024,     4096, 0xeb4a4194
1,     477304,     477304,      446,     1784, 0xde936a29
0,     166400,     166400,      512,   153600, 0x00ec92ea
1,     477750,     477750,     1024,     4096, 0xa473e1b3
1,     478774,     478774,      446,     1784, 0xa6211a61
0,     166912,     166912,      512,   153600, 0xb541cbdb
1,     479220,     479220,     1024,     4096, 0xe08b3f46
1,     480244,     480244,      446,     1784, 0x4b0236bb
0,     167424,     167424,      512,   153600, 0xa1eec917
1,     480690,     480690,     1024,     4096, 0x1c29edb1
1,     481714,     481714,      446,     1784, 0xfa0b260d
0,     167936,     167936,      512,   153600, 0x8ebc1091
1,     482160,     482160,     1024,     4096, 0x75653836
1,     483184,     483184,      446,     1784, 0xd23c79e3
0,     168448,     168448,      512,   153600, 0xae1303c3
1,     483630,     483630,     1024,     4096, 0xae6d5680
1,     484654,     484654,      446,     1784, 0x8348446f
0,     168960,     168960,      512,   153600, 0xbe6f39b8
1,     485100,     485100,     1024,     4096, 0xb2ac21e4
1,     486124,     486124,      446,     1784, 0x1a51d423
0,     169472,     169472,      512,   153600, 0x2a5c3521
1,     486570,     486570,     1024,     4096, 0xc2d6db4f
1,     487594,     487594,      446,     1784, 0xb87a709b
0,     169984,     169984,      512,   153600, 0x6bcc66b5
1,     488040,     488040,     1024,     4096, 0x2311d085
1,     489064,     489064,      446,     1784, 0x83ef3593
0,     170496,     170496,      512,   153600, 0xd40a8179
1,     489510,     489510,     1024,     4096, 0xb18225e0
1,     490534,     490534,      446,     1784, 0xb368fcb4
0,     171008,     171008,      512,   153600, 0xb94b9148
1,     490980,     490980,     1024,     4096, 0xe608532f
1,     492004,     492004,      446,     1784, 0xc4fa5bf3
0,     171520,     171520,      512,   153600, 0x0a57af62
1,     492450,     492450,     1024,     4096, 0x0e9aab49
1,     493474,     493474,      446,     1784, 0x0d94993b
0,     172032,     172032,      512,   153600, 0xaeffee02
1,     493920,     493920,     1024,     4096, 0x655ddd4f
1,     494944,     494944,      446,     1784, 0x8d90877d
0,     172544,     172544,      512,   153600, 0x5abfe492
1,     495390,     495390,     1024,     4096, 0x90a14a7e
1,     496414,     496414,      446,     1784, 0x1ed444d3
0,     173056,     173056,      512,   153600, 0x8d692e21
1,     496860,     496860,     1024,     4096, 0xbc77f48b
1,     497884,     497884,      446,     1784, 0xd48534f7
0,     173568,     173568,      512,   153600, 0xc8d13623
1,     498330,     498330,     1024,     4096, 0xb1d44ed0
1,     499354,     499354,      446,     1784, 0x78381938
0,     174080,     174080,      512,   153600, 0xeb8b3407
1,     499800,     499800,     1024,     4096, 0xa95ff7e5
1,     500824,     500824,      446,     1784, 0x0fed17fd
0,     174592,     174592,      512,   153600, 0x2f453095
1,     501270,     501270,     1024,     4096, 0xc13f8ac5
1,     502294,     502294,      446,     1784, 0x808730c1
0,     175104,     175104,      512,   153600, 0xd9c65115
1,     502740,     502740,     1024,     4096, 0xc716df79
1,     503764,     503764,      446,     1784, 0xc6bc440b
0,     175616,     175616,      512,   153600, 0xfc766463
1,     504210,     504210,     1024,     4096, 0x311b2690
1,     505234,     505234,      446,     1784, 0x68796417
0,     176128,     176128,      512,   153600, 0xa4c4901c
1,     505680,     505680,     1024,     4096, 0xcf0d946d
1,     506704,     506704,      446,     1784, 0xea8fca2e
0,     176640,     176640,      512,   153600, 0xca4aa559
1,     507150,     507150,     1024,     4096, 0x1a3835a1
1,     508174,     508174,      446,     1784, 0x4513c167
0,     177152,     177152,      512,   153600, 0xfc8ae414
1,     508620,     508620,     1024,     4096, 0x95000680
1,     509644,     509644,      446,     1784, 0xebdc100d
0,     177664,     177664,      512,   153600, 0xd6e5d1ee
1,     510090,     510090,     1024,     4096, 0x6e9ca78e
1,     511114,     511114,      446,     1784, 0x53208d25
0,     178176,     178176,      512,   153600, 0xc1d72dcb
1,     511560,     511560,     1024,     4096, 0xef19b5a1
1,     512584,     512584,      446,     1784, 0x3eaa81c7
0,     178688,     178688,      512,   153600, 0x104c3bf5
1,     513030,     513030,     1024,     4096, 0x230e2510
1,     514054,     514054,      446,     1784, 0xecaf6de5
0,     179200,     179200,      512,   153600, 0xbae46493
1,     514500,     514500,     1024,     4096, 0x0177060a
1,     515524,     515524,      446,     1784, 0xd70c29c7
0,     179712,     179712,      512,   153600, 0xe52f4dd1
1,     515970,     515970,     1024,     4096, 0xc8480084
1,     516994,     516994,      446,     1784, 0x6af76d17
0,     180224,     180224,      512,   153600, 0x2a36860b
1,     517440,     517440,     1024,     4096, 0xd08bdbc9
1,     518464,     518464,      446,     1784, 0xc14865fb
0,     180736,     180736,      512,   153600, 0x2acc9f05
1,     518910,     518910,     1024,     4096, 0x60701bba
1,     519934,     519934,      446,     1784, 0xce20c34f
0,     181248,     181248,      512,   153600, 0x19b6c692
1,     520380,     520380,     1024,     4096, 0xc0548756
1,     521404,     521404,      446,     1784, 0x22a05a49
0,     181760,     181760,      512,   153600, 0xcfded4b3
1,     521850,     521850,     1024,     4096, 0x4c027236
1,     522874,     522874,      446,     1784, 0xf9d754b9
0,     182272,     182272,      512,   153600, 0x7f6710cc
1,     523320,     523320,     1024,     4096, 0x43811590
1,     524344,     524344,      446,     1784, 0x2f155c15
0,     182784,     182784,      512,   153600, 0xc2f6ed44
1,     524790,     524790,     1024,     4096, 0x0022a45f
1,     525814,     525814,      446,     1784, 0x5f62cfe9
0,     183296,     183296,      512,   153600, 0x3f444bec
1,     526260,     526260,     1024,     4096, 0x7a953324
1,     527284,     527284,      446,     1784, 0xf042aed7
0,     183808,     183808,      512,   153600, 0x71eb504d
1,     527730,     527730,     1024,     4096, 0xcd9f6478
1,     528754,     528754,      446,     1784, 0x66f2913f
0,     184320,     184320,      512,   153600, 0xe22b6e68
1,     529200,     529200,     1024,     4096, 0x96f419cd
1,     530224,     530224,      446,     1784, 0x82a4575b
0,     184832,     184832,      512,   153600, 0x4f8c49a7
1,     530670,     530670,     1024,     4096, 0x7b0bb7f8
1,     531694,     531694,      446,     1784, 0xd6938f05
0,     185344,     185344,      512,   153600, 0x2aee67af
1,     532140,     532140,     1024,     4096, 0xc290a51d
1,     533164,     533164,      446,     1784, 0x94d48709
0,     185856,     185856,      512,   153600, 0x28187abb
1,     533610,     533610,     1024,     4096, 0x790abb1b
1,     534634,     534634,      446,     1784, 0x557187cb
0,     186368,     186368,      512,   153600, 0x9ac390ad
1,     535080,     535080,     1024,     4096, 0xec2403b6
1,     536104,     536104,      446,     1784, 0x1d74d65f
0,     186880,     186880,      512,   153600, 0x028199f8
1,     536550,     536550,     1024,     4096, 0x4bd4a5bd
1,     537574,     537574,      446,     1784, 0xf096750b
0,     187392,     187392,      512,   153600, 0x663ace7a
1,     538020,     538020,     1024,     4096, 0x7514f7ed
1,     539044,     539044,      446,     1784, 0xe69be40b
0,     187904,     187904,      512,   153600, 0x4eda8e09
1,     539490,     539490,     1024,     4096, 0xace2f799
1,     540514,     540514,      446,     1784, 0x9d7a834b
0,     188416,     188416,      512,   153600, 0x87d503eb
1,     540960,     540960,     1024,     4096, 0x8a8c8258
1,     541984,     541984,      446,     1784, 0x00f098c5
0,     188928,     188928,      512,   153600, 0xe66ef6cd
1,     542430,     542430,     1024,     4096, 0xf814f847
1,     543454,     543454,      446,     1784, 0x749675d7
0,     189440,     189440,      512,   153600, 0x64070645
1,     543900,     543900,     1024,     4096, 0xf830cbab
1,     544924,     544924,      446,     1784, 0xef8b4e8d
0,     189952,     189952,      512,   153600, 0x4e40d051
1,     545370,     545370,     1024,     4096, 0xc6bcf36b
1,     546394,     546394,      446,     1784, 0x928bb5db
0,     190464,     190464,      512,   153600, 0xc5b0ff34
1,     546840,     546840,     1024,     4096, 0x6183404e
1,     547864,     547864,      446,     1784, 0x0adb0098
0,     190976,     190976,      512,   153600, 0x2ad41482
1,     548310,     548310,     1024,     4096, 0x70556526
1,     549334,     549334,      446,     1784, 0x9c0a36b1
0,     191488,     191488,      512,   153600, 0xb80431a6
1,     549780,     549780,     1024,     4096, 0xf7e15034
1,     550804,     550804,      446,     1784, 0xbc556c8f
0,     192000,     192000,      512,   153600, 0x665f5806
1,     551250,     551250,     1024,     4096, 0x7ccf86b2
1,     552274,     552274,      446,     1784, 0x4576ad47
0,     192512,     192512,      512,   153600, 0x7480adf7
1,     552720,     552720,     1024,     4096, 0x978974cd
1,     553744,     553744,      446,     1784, 0x03ddd259
0,     193024,     193024,      512,   153600, 0x4c628241
1,     554190,     554190,     1024,     4096, 0xfab2d9d0
1,     555214,     555214,      446,     1784, 0xcbf1ccdb
0,     193536,     193536,      512,   153600, 0xd491217d
1,     555660,     555660,     1024,     4096, 0x12b7a09c
1,     556684,     556684,      446,     1784, 0xec55147b
0,     194048,     194048,      512,   153600, 0x59f92eea
1,     557130,     557130,     1024,     4096, 0x44a0c064
1,     558154,     558154,      446,     1784, 0xe1014711
0,     194560,     194560,      512,   153600, 0xa4616467
1,     558600,     558600,     1024,     4096, 0x687d3268
1,     559624,     559624,      446,     1784, 0x59b087c5
0,     195072,     195072,      512,   153600, 0xaadb3ede
1,     560070,     560070,     1024,     4096, 0xb992d2a9
1,     561094,     561094,      446,     1784, 0x3c57a52b
0,     195584,     195584,      512,   153600, 0x8f3f956b
1,     561540,     561540,     1024,     4096, 0x11556576
1,     562564,     562564,      446,     1784, 0x3aea5b51
0,     196096,     196096,      512,   153600, 0x6084c277
1,     563010,     563010,     1024,     4096, 0xfd728ac2
1,     564034,     564034,      446,     1784, 0x42476e2d
0,     196608,     196608,      512,   153600, 0x931b02c7
1,     564480,     564480,     1024,     4096, 0xd92510a2
1,     565504,     565504,      446,     1784, 0xe56b7a7d
0,     197120,     197120,      512,   153600, 0x5a972948
1,     565950,     565950,     1024,     4096, 0x914c36ce
1,     566974,     566974,      446,     1784, 0x62ec749b
0,     197632,     197632,      512,   153600, 0xdf94a269
1,     567420,     567420,     1024,     4096, 0xe13305ea
1,     568444,     568444,      446,     1784, 0x56787579
0,     198144,     198144,      512,   153600, 0xccdf8aa3
1,     568890,     568890,     1024,     4096, 0x80643756
1,     569914,     569914,      446,     1784, 0xb095eb02
0,     198656,     198656,      512,   153600, 0xbb1e3c43
1,     570360,     570360,     1024,     4096, 0x62d61438
1,     571384,     571384,      446,     1784, 0x5f03919f
0,     199168,     199168,      512,   153600, 0xbecd6291
1,     571830,     571830,     1024,     4096, 0x700f9ffb
1,     572854,     572854,      446,     1784, 0xd0522fad
0,     199680,     199680,      512,   153600, 0x9aa9dc41
1,     573300,     573300,     1024,     4096, 0x0a3f8a91
1,     574324,     574324,      446,     1784, 0x371495c9
0,     200192,     200192,      512,   153600, 0xf65aafad
1,     574770,     574770,     1024,     4096, 0x5bcda20f
1,     575794,     575794,      446,     1784, 0x734d621b
0,     200704,     200704,      512,   153600, 0x594b25a3
1,     576240,     576240,     1024,     4096, 0x85cf60f1
1,     577264,     577264,      446,     1784, 0x8abf6f59
0,     201216,     201216,      512,   153600, 0x2326573d
1,     577710,     577710,     1024,     4096, 0xf67e958d
1,     578734,     578734,      446,     1784, 0x89659faf
0,     201728,     201728,      512,   153600, 0xfb65c38e
1,     579180,     579180,     1024,     4096, 0xa059138e
1,     580204,     580204,      446,     1784, 0xd3987e0d
0,     202240,     202240,      512,   153600, 0xdb6be726
1,     580650,     580650,     1024,     4096, 0x7629076a
1,     581674,     581674,      446,     1784, 0xa7a741f9
0,     202752,     202752,      512,   153600, 0x573a8f57
1,     582120,     582120,     1024,     4096, 0x5b80aae2
1,     583144,     583144,      446,     1784, 0xd48a2697
0,     203264,     203264,      512,   153600, 0x90105101
1,     583590,     583590,     1024,     4096, 0xa36217fc
1,     584614,     584614,      446,     1784, 0x8c83a471
0,     203776,     203776,      512,   153600, 0x5d8c4d6a
1,     585060,     585060,     1024,     4096, 0xcead4b5c
1,     586084,     586084,      446,     1784, 0x3c991f0f
0,     204288,     204288,      512,   153600, 0xccb6605e
1,     586530,     586530,     1024,     4096, 0x41f73652
1,     587554,     587554,      446,     1784, 0x5d0c5e43
0,     204800,     204800,      512,   153600, 0xeaa052a5
1,     588000,     588000,     1024,     4096, 0x177c257e
1,     589024,     589024,      446,     1784, 0xa5ab6891
0,     205312,     205312,      512,   153600, 0x77eb265a
1,     589470,     589470,     1024,     4096, 0x897e3a0a
1,     590494,     590494,      446,     1784, 0xd31e454d
0,     205824,     205824,      512,   153600, 0x8e5bace3
1,     590940,     590940,     1024,     4096, 0x8290e445
1,     591964,     591964,      446,     1784, 0x73ed5103
0,     206336,     206336,      512,   153600, 0x8210f938
1,     592410,     592410,     1024,     4096, 0xd474374c
1,     593434,     593434,      446,     1784, 0x56bd9f05
0,     206848,     206848,      512,   153600, 0x479a5794
1,     593880,     593880,     1024,     4096, 0xb8d4a547
1,     594904,     594904,      446,     1784, 0xfe5d2ac5
0,     207360,     207360,      512,   153600, 0xd9119fa9
1,     595350,     595350,     1024,     4096, 0xaca67c21
1,     596374,     596374,      446,     1784, 0x547602bb
0,     207872,     207872,      512,   153600, 0x2f6943b0
1,     596820,     596820,     1024,     4096, 0x24671446
1,     597844,     597844,      446,     1784, 0x976e4379
0,     208384,     208384,      512,   153600, 0x671a122f
1,     598290,     598290,     1024,     4096, 0x5f898fab
1,     599314,     599314,      446,     1784, 0xae91d0c1
0,     208896,     208896,      512,   153600, 0x5bb718cf
1,     599760,     599760,     1024,     4096, 0xd1152256
1,     600784,     600784,      446,     1784, 0xd2261f01
0,     209408,     209408,      512,   153600, 0xa3a04639
1,     601230,     601230,     1024,     4096, 0xa0481d0b
1,     602254,     602254,      446,     1784, 0xedaceb46
0,     209920,     209920,      512,   153600, 0x867b2989
1,     602700,     602700,     1024,     4096, 0x08a1e78a
1,     603724,     603724,      446,     1784, 0x96457f79
0,     210432,     210432,      512,   153600, 0x9b55eafc
1,     604170,     604170,     1024,     4096, 0x4088a229
1,     605194,     605194,      446,     1784, 0xa6e46df7
0,     210944,     210944,      512,   153600, 0xf80c85aa
1,     605640,     605640,     1024,     4096, 0x2c0b036e
1,     606664,     606664,      446,     1784, 0x9fd0c261
0,     211456,     211456,      512,   153600, 0x7f0cc89b
1,     607110,     607110,     1024,     4096, 0x2247ef35
1,     608134,     608134,      446,     1784, 0xd5808931
0,     211968,     211968,      512,   153600, 0x261d5495
1,     608580,     608580,     1024,     4096, 0x5c79d525
1,     609604,     609604,      446,     1784, 0x7a1a7a91
0,     212480,     212480,      512,   153600, 0x2c898276
1,     610050,     610050,     1024,     4096, 0xfc3cc3c3
1,     611074,     611074,      446,     1784, 0xcd5333b9
0,     212992,     212992,      512,   153600, 0x483a5676
1,     611520,     611520,     1024,     4096, 0xcb62b3fb
1,     612544,     612544,      446,     1784, 0xf5327dc3
0,     213504,     213504,      512,   153600, 0x84dbff5d
1,     612990,     612990,     1024,     4096, 0xc9425d46
1,     614014,     614014,      446,     1784, 0xddab8e1b
0,     214016,     214016,      512,   153600, 0x28a0315b
1,     614460,     614460,     1024,     4096, 0xdcdc39fa
1,     615484,     615484,      446,     1784, 0x3e82d189
0,     214528,     214528,      512,   153600, 0xb94955e2
1,     615930,     615930,     1024,     4096, 0x49fb9c88
1,     616954,     616954,      446,     1784, 0x2777c6c9
0,     215040,     215040,      512,   153600, 0xbb7986b4
1,     617400,     617400,     1024,     4096, 0x3a7873a0
1,     618424,     618424,      446,     1784, 0xb259e0c1
0,     215552,     215552,      512,   153600, 0x784a3d6e
1,     618870,     618870,     1024,     4096, 0x053fa0d2
1,     619894,     619894,      446,     1784, 0x96908e95
0,     216064,     216064,      512,   153600, 0x7c49cc2a
1,     620340,     620340,     1024,     4096, 0x68fcf7f7
1,     621364,     621364,      446,     1784, 0x6d622d4b
0,     216576,     216576,      512,   153600, 0x9a4c22e9
1,     621810,     621810,     1024,     4096, 0x1f3598ef
1,     622834,     622834,      446,     1784, 0xd2ec50d5
0,     217088,     217088,      512,   153600, 0x29ba761b
1,     623280,     623280,     1024,     4096, 0x1607c3e0
1,     624304,     624304,      446,     1784, 0xd79a5479
0,     217600,     217600,      512,   153600, 0x0d72aef6
1,     624750,     624750,     1024,     4096, 0xbe37d081
1,     625774,     625774,      446,     1784, 0x262952c3
0,     218112,     218112,      512,   153600, 0x09e66ca5
1,     626220,     626220,     1024,     4096, 0xc311f64d
1,     627244,     627244,      446,     1784, 0xc9be8ca3
0,     218624,     218624,      512,   153600, 0x4ada0e59
1,     627690,     627690,     1024,     4096, 0xe49b2051
1,     628714,     628714,      446,     1784, 0x3385c792
0,     219136,     219136,      512,   153600, 0x4ac827f4
1,     629160,     629160,     1024,     4096, 0x1abc2255
1,     630184,     630184,      446,     1784, 0xfad841d7
0,     219648,     219648,      512,   153600, 0x81ee3eec
1,     630630,     630630,     1024,     4096, 0x27a5b287
1,     631654,     631654,      446,     1784, 0x1df7cac5
0,     220160,     220160,      512,   153600, 0xdccbf05d
1,     632100,     632100,     1024,     4096, 0x0fd6c337
1,     633124,     633124,      446,     1784, 0x8942d011
0,     220672,     220672,      512,   153600, 0xcaa38a15
1,     633570,     633570,     1024,     4096, 0xbc77b92b
1,     634594,     634594,      446,     1784, 0x5fee6187
0,     221184,     221184,      512,   153600, 0x881a13f9
1,     635040,     635040,     1024,     4096, 0xdbeb30fe
1,     636064,     636064,      446,     1784, 0xc9ef5d75
0,     221696,     221696,      512,   153600, 0x92824306
1,     636510,     636510,     1024,     4096, 0xbae71e68
1,     637534,     637534,      446,     1784, 0x38005157
0,     222208,     222208,      512,   153600, 0x06e490c1
1,     637980,     637980,     1024,     4096, 0x7c5ffc69
1,     639004,     639004,      446,     1784, 0x22768ad5
0,     222720,     222720,      512,   153600, 0xd351c066
1,     639450,     639450,     1024,     4096, 0x5afb967d
1,     640474,     640474,      446,     1784, 0x2d8c3189
0,     223232,     223232,      512,   153600, 0x7c7e3118
1,     640920,     640920,     1024,     4096, 0x0535874e
1,     641944,     641944,      446,     1784, 0xf5b44a4f
0,     223744,     223744,      512,   153600, 0x3232c61f
1,     642390,     642390,     1024,     4096, 0xe1565515
1,     643414,     643414,      446,     1784, 0x32308ffd
0,     224256,     224256,      512,   153600, 0x66e39966
1,     643860,     643860,     1024,     4096, 0xa0b5e70b
1,     644884,     644884,      446,     1784, 0x974e2b2f
0,     224768,     224768,      512,   153600, 0x8cffa4ce
1,     645330,     645330,     1024,     4096, 0x01913180
1,     646354,     646354,      446,     1784, 0xdb223fcd
0,     225280,     225280,      512,   153600, 0x03150926
1,     646800,     646800,     1024,     4096, 0xbe24f8a9
1,     647824,     647824,      446,     1784, 0x6cbc42e3
0,     225792,     225792,      512,   153600, 0xf7af5dc7
1,     648270,     648270,     1024,     4096, 0x1c816232
1,     649294,     649294,      446,     1784, 0x41ce7fa1
0,     226304,     226304,      512,   153600, 0x7a5db94e
1,     649740,     649740,     1024,     4096, 0x62e56ee9
1,     650764,     650764,      446,     1784, 0x06fa6a2f
0,     226816,     226816,      512,   153600, 0x63fdcde8
1,     651210,     651210,     1024,     4096, 0x17b9ffe9
1,     652234,     652234,      446,     1784, 0x27ac9461
0,     227328,     227328,      512,   153600, 0x933bf3e7
1,     652680,     652680,     1024,     4096, 0xccc6cb05
1,     653704,     653704,      446,     1784, 0x70019033
0,     227840,     227840,      512,   153600, 0xc8e0de57
1,     654150,     654150,     1024,     4096, 0xde22e8e7
1,     655174,     655174,      446,     1784, 0xe2b2180b
0,     228352,     228352,      512,   153600, 0x508d4af4
1,     655620,     655620,     1024,     4096, 0x9e5bec6d
1,     656644,     656644,      446,     1784, 0xc96eac9f
0,     228864,     228864,      512,   153600, 0xd32ea257
1,     657090,     657090,     1024,     4096, 0x6015fbad
1,     658114,     658114,      446,     1784, 0x143e682d
0,     229376,     229376,      512,   153600, 0xfeb178fe
1,     658560,     658560,     1024,     4096, 0xb3a98b64
1,     659584,     659584,      446,     1784, 0xd45311f1
0,     229888,     229888,      512,   153600, 0x18284395
1,     660030,     660030,     1024,     4096, 0x1bca002e
1,     661054,     661054,      446,     1784, 0x38ff65f1
0,     230400,     230400,      512,   153600, 0x5ef6e6c6
1,     661500,     661500,     1024,     4096, 0x7051d2b5
1,     662524,     662524,      446,     1784, 0xc96d4e6d
0,     230912,     230912,      512,   153600, 0x69b6c174
1,     662970,     662970,     1024,     4096, 0x0c1e8086
1,     663994,     663994,      446,     1784, 0xc0147cf7
0,     231424,     231424,      512,   153600, 0x970b3a3a
1,     664440,     664440,     1024,     4096, 0x71223d92
1,     665464,     665464,      446,     1784, 0x45fc88c1
0,     231936,     231936,      512,   153600, 0x5d41342a
1,     665910,     665910,     1024,     4096, 0x90aedded
1,     666934,     666934,      446,     1784, 0xf2788a53
0,     232448,     232448,      512,   153600, 0xe36d60a7
1,     667380,     667380,     1024,     4096, 0x7e1b3124
1,     668404,     668404,      446,     1784, 0xbc698949
0,     232960,     232960,      512,   153600, 0x8a9d3689
1,     668850,     668850,     1024,     4096, 0xcce32bda
1,     669874,     669874,      446,     1784, 0x00612a87
0,     233472,     233472,      512,   153600, 0x7e4ef89d
1,     670320,     670320,     1024,     4096, 0x1251e36f
1,     671344,     671344,      446,     1784, 0xc29078dd
0,     233984,     233984,      512,   153600, 0x8344cc45
1,     671790,     671790,     1024,     4096, 0xf2c1b2d1
1,     672814,     672814,      446,     1784, 0x1825ec5e
0,     234496,     234496,      512,   153600, 0x2db2499f
1,     673260,     673260,     1024,     4096, 0x377e8a89
1,     674284,     674284,      446,     1784, 0xde76cab3
0,     235008,     235008,      512,   153600, 0x4b7dea95
1,     674730,     674730,     1024,     4096, 0xf7045c92
1,     675754,     675754,      446,     1784, 0x21b86c7b
0,     235520,     235520,      512,   153600, 0xe9d9e236
1,     676200,     676200,     1024,     4096, 0x27bede21
1,     677224,     677224,      446,     1784, 0xf4d3a09b
0,     236032,     236032,      512,   153600, 0xf499bce4
1,     677670,     677670,     1024,     4096, 0xc26409a6
1,     678694,     678694,      446,     1784, 0xc8737334
0,     236544,     236544,      512,   153600, 0x21fd35aa
1,     679140,     679140,     1024,     4096, 0x92969e47
1,     680164,     680164,      446,     1784, 0x4bae7523
0,     237056,     237056,      512,   153600, 0xe8242f9a
1,     680610,     680610,     1024,     4096, 0x9ae534f2
1,     681634,     681634,      446,     1784, 0x82c16eab
0,     237568,     237568,      512,   153600, 0x6e5f5c17
1,     682080,     682080,     1024,     4096, 0x69123a00
1,     683104,     683104,      446,     1784, 0x50836887
0,     238080,     238080,      512,   153600, 0x158f31f9
1,     683550,     683550,     1024,     4096, 0x6577820e
1,     684574,     684574,      446,     1784, 0x16ed6553
0,     238592,     238592,      512,   153600, 0x0940f40d
1,     685020,     685020,     1024,     4096, 0x61796570
1,     686044,     686044,      446,     1784, 0x3f698821
0,     239104,     239104,      512,   153600, 0x0e36c7b5
1,     686490,     686490,     1024,     4096, 0x452245d4
1,     687514,     687514,      446,     1784, 0xb5887201
0,     239616,     239616,      512,   153600, 0xb895450f
1,     687960,     687960,     1024,     4096, 0x3a5fa022
1,     688984,     688984,      446,     1784, 0x1c9abef3
0,     240128,     240128,      512,   153600, 0xd660e605
1,     689430,     689430,     1024,     4096, 0x72760c2c
1,     690454,     690454,      446,     1784, 0x44a468b9
0,     240640,     240640,      512,   153600, 0xaf140c90
1,     690900,     690900,     1024,     4096, 0x5d1ea983
1,     691924,     691924,      446,     1784, 0xf47e620d
0,     241152,     241152,      512,   153600, 0xb9d4e72f
1,     692370,     692370,     1024,     4096, 0x7bb8a4c4
1,     693394,     693394,      446,     1784, 0xe0f0a459
0,     241664,     241664,      512,   153600, 0xe7295ff5
1,     693840,     693840,     1024,     4096, 0x32acdd0b
1,     694864,     694864,      446,     1784, 0x936af921
0,     242176,     242176,      512,   153600, 0xad5f59e5
1,     695310,     695310,     1024,     4096, 0xf5ddd332
1,     696334,     696334,      446,     1784, 0x45c0ccdb
0,     242688,     242688,      512,   153600, 0x339a8662
1,     696780,     696780,     1024,     4096, 0x05ff2ac5
1,     697804,     697804,      446,     1784, 0x08e7bce1
0,     243200,     243200,      512,   153600, 0xdabb5c44
1,     698250,     698250,     1024,     4096, 0xad304908
1,     699274,     699274,      446,     1784, 0x760fd441
0,     243712,     243712,      512,   153600, 0xce6c1e67
1,     699720,     699720,     1024,     4096, 0xf1758b37
1,     700744,     700744,      446,     1784, 0x5f5b608d
0,     244224,     244224,      512,   153600, 0xd362f200
1,     701190,     701190,     1024,     4096, 0x0c685308
1,     702214,     702214,      446,     1784, 0x463af9b2
0,     244736,     244736,      512,   153600, 0x7dd06f5a
1,     702660,     702660,     1024,     4096, 0x0fac339d
1,     703684,     703684,      446,     1784, 0x970cf21f
0,     245248,     245248,      512,   153600, 0x9b9b105f
1,     704130,     704130,     1024,     4096, 0xa1c35fe3
1,     705154,     705154,      446,     1784, 0xf367e574
